<svg xmlns="http://www.w3.org/2000/svg" viewBox="0 0 512 512">
  <rect width="512" height="512" rx="104" fill="#07c160"/>
  <path d="M218 142c-82 0-148 53-148 119 0 43 29 81 72 101l-18 58 67-38c9 1 18 2 27 2 82 0 148-53 148-123s-66-119-148-119Z" fill="#fff"/>
  <path d="M326 239c67 0 121 44 121 99 0 36-24 68-60 84l15 48-56-31c-7 1-14 1-20 1-67 0-121-44-121-102s54-99 121-99Z" fill="#fff" opacity=".96"/>
  <circle cx="171" cy="248" r="17" fill="#07c160"/>
  <circle cx="263" cy="248" r="17" fill="#07c160"/>
  <circle cx="284" cy="331" r="14" fill="#07c160"/>
  <circle cx="363" cy="331" r="14" fill="#07c160"/>
</svg>
